<mxfile host="app.diagrams.net" modified="2022-02-09T19:52:16.991Z" agent="5.0 (Macintosh; Intel Mac OS X 10_15_7) AppleWebKit/537.36 (KHTML, like Gecko) Chrome/97.0.4692.99 Safari/537.36" etag="zaWdbjtMy5fDrmlY85ql" version="16.5.4" type="github">
  <diagram id="xciSy4QITh2-hr6PKNjF" name="Page-1">
    <mxGraphModel dx="2276" dy="769" grid="1" gridSize="10" guides="1" tooltips="1" connect="1" arrows="1" fold="1" page="1" pageScale="1" pageWidth="850" pageHeight="1100" math="0" shadow="0">
      <root>
        <mxCell id="0" />
        <mxCell id="1" parent="0" />
        <mxCell id="72216ZQHOvZ9OeDvA5Sk-1" value="" style="rounded=0;whiteSpace=wrap;html=1;fillColor=#ffe6cc;strokeColor=#d79b00;" vertex="1" parent="1">
          <mxGeometry y="110" width="1150" height="670" as="geometry" />
        </mxCell>
        <mxCell id="72216ZQHOvZ9OeDvA5Sk-8" style="edgeStyle=orthogonalEdgeStyle;rounded=0;orthogonalLoop=1;jettySize=auto;html=1;" edge="1" parent="1" source="72216ZQHOvZ9OeDvA5Sk-3" target="72216ZQHOvZ9OeDvA5Sk-7">
          <mxGeometry relative="1" as="geometry" />
        </mxCell>
        <mxCell id="72216ZQHOvZ9OeDvA5Sk-3" value="" style="aspect=fixed;html=1;points=[];align=center;image;fontSize=12;image=img/lib/azure2/azure_stack/User_Subscriptions.svg;" vertex="1" parent="1">
          <mxGeometry x="-160" y="360" width="68" height="66" as="geometry" />
        </mxCell>
        <mxCell id="72216ZQHOvZ9OeDvA5Sk-5" value="AWS" style="text;html=1;strokeColor=none;fillColor=none;align=center;verticalAlign=middle;whiteSpace=wrap;rounded=0;" vertex="1" parent="1">
          <mxGeometry y="110" width="60" height="30" as="geometry" />
        </mxCell>
        <mxCell id="72216ZQHOvZ9OeDvA5Sk-10" value="" style="edgeStyle=orthogonalEdgeStyle;rounded=0;orthogonalLoop=1;jettySize=auto;html=1;" edge="1" parent="1" source="72216ZQHOvZ9OeDvA5Sk-7" target="72216ZQHOvZ9OeDvA5Sk-9">
          <mxGeometry relative="1" as="geometry" />
        </mxCell>
        <mxCell id="72216ZQHOvZ9OeDvA5Sk-7" value="Certificate&lt;br&gt;Manager" style="outlineConnect=0;dashed=0;verticalLabelPosition=bottom;verticalAlign=top;align=center;html=1;shape=mxgraph.aws3.certificate_manager;fillColor=#759C3E;gradientColor=none;" vertex="1" parent="1">
          <mxGeometry x="23.5" y="362.25" width="76.5" height="61.5" as="geometry" />
        </mxCell>
        <mxCell id="72216ZQHOvZ9OeDvA5Sk-12" value="" style="edgeStyle=orthogonalEdgeStyle;rounded=0;orthogonalLoop=1;jettySize=auto;html=1;" edge="1" parent="1" source="72216ZQHOvZ9OeDvA5Sk-9" target="72216ZQHOvZ9OeDvA5Sk-11">
          <mxGeometry relative="1" as="geometry" />
        </mxCell>
        <mxCell id="72216ZQHOvZ9OeDvA5Sk-9" value="ROUTE 53" style="sketch=0;points=[[0,0,0],[0.25,0,0],[0.5,0,0],[0.75,0,0],[1,0,0],[0,1,0],[0.25,1,0],[0.5,1,0],[0.75,1,0],[1,1,0],[0,0.25,0],[0,0.5,0],[0,0.75,0],[1,0.25,0],[1,0.5,0],[1,0.75,0]];outlineConnect=0;fontColor=#232F3E;gradientColor=#945DF2;gradientDirection=north;fillColor=#5A30B5;strokeColor=#ffffff;dashed=0;verticalLabelPosition=bottom;verticalAlign=top;align=center;html=1;fontSize=12;fontStyle=0;aspect=fixed;shape=mxgraph.aws4.resourceIcon;resIcon=mxgraph.aws4.route_53;" vertex="1" parent="1">
          <mxGeometry x="150" y="354" width="78" height="78" as="geometry" />
        </mxCell>
        <mxCell id="72216ZQHOvZ9OeDvA5Sk-14" value="" style="edgeStyle=orthogonalEdgeStyle;rounded=0;orthogonalLoop=1;jettySize=auto;html=1;" edge="1" parent="1" source="72216ZQHOvZ9OeDvA5Sk-11" target="72216ZQHOvZ9OeDvA5Sk-13">
          <mxGeometry relative="1" as="geometry" />
        </mxCell>
        <mxCell id="72216ZQHOvZ9OeDvA5Sk-11" value="WAF" style="sketch=0;points=[[0,0,0],[0.25,0,0],[0.5,0,0],[0.75,0,0],[1,0,0],[0,1,0],[0.25,1,0],[0.5,1,0],[0.75,1,0],[1,1,0],[0,0.25,0],[0,0.5,0],[0,0.75,0],[1,0.25,0],[1,0.5,0],[1,0.75,0]];outlineConnect=0;fontColor=#232F3E;gradientColor=#F54749;gradientDirection=north;fillColor=#C7131F;strokeColor=#ffffff;dashed=0;verticalLabelPosition=bottom;verticalAlign=top;align=center;html=1;fontSize=12;fontStyle=0;aspect=fixed;shape=mxgraph.aws4.resourceIcon;resIcon=mxgraph.aws4.waf;" vertex="1" parent="1">
          <mxGeometry x="280" y="354" width="78" height="78" as="geometry" />
        </mxCell>
        <mxCell id="72216ZQHOvZ9OeDvA5Sk-13" value="CloudFront" style="sketch=0;points=[[0,0,0],[0.25,0,0],[0.5,0,0],[0.75,0,0],[1,0,0],[0,1,0],[0.25,1,0],[0.5,1,0],[0.75,1,0],[1,1,0],[0,0.25,0],[0,0.5,0],[0,0.75,0],[1,0.25,0],[1,0.5,0],[1,0.75,0]];outlineConnect=0;fontColor=#232F3E;gradientColor=#945DF2;gradientDirection=north;fillColor=#5A30B5;strokeColor=#ffffff;dashed=0;verticalLabelPosition=bottom;verticalAlign=top;align=center;html=1;fontSize=12;fontStyle=0;aspect=fixed;shape=mxgraph.aws4.resourceIcon;resIcon=mxgraph.aws4.cloudfront;" vertex="1" parent="1">
          <mxGeometry x="400" y="354" width="78" height="78" as="geometry" />
        </mxCell>
        <mxCell id="72216ZQHOvZ9OeDvA5Sk-15" value="VPC" style="points=[[0,0],[0.25,0],[0.5,0],[0.75,0],[1,0],[1,0.25],[1,0.5],[1,0.75],[1,1],[0.75,1],[0.5,1],[0.25,1],[0,1],[0,0.75],[0,0.5],[0,0.25]];outlineConnect=0;html=1;whiteSpace=wrap;fontSize=12;fontStyle=0;container=1;pointerEvents=0;collapsible=0;recursiveResize=0;shape=mxgraph.aws4.group;grIcon=mxgraph.aws4.group_vpc;strokeColor=#82b366;fillColor=#d5e8d4;verticalAlign=top;align=left;spacingLeft=30;dashed=0;" vertex="1" parent="1">
          <mxGeometry x="530" y="190" width="620" height="570" as="geometry" />
        </mxCell>
        <mxCell id="72216ZQHOvZ9OeDvA5Sk-55" value="Region" style="points=[[0,0],[0.25,0],[0.5,0],[0.75,0],[1,0],[1,0.25],[1,0.5],[1,0.75],[1,1],[0.75,1],[0.5,1],[0.25,1],[0,1],[0,0.75],[0,0.5],[0,0.25]];outlineConnect=0;html=1;whiteSpace=wrap;fontSize=12;fontStyle=0;container=1;pointerEvents=0;collapsible=0;recursiveResize=0;shape=mxgraph.aws4.group;grIcon=mxgraph.aws4.group_region;strokeColor=#d6b656;fillColor=none;verticalAlign=top;align=left;spacingLeft=30;dashed=1;" vertex="1" parent="72216ZQHOvZ9OeDvA5Sk-15">
          <mxGeometry x="-10" y="-70" width="630" height="650" as="geometry" />
        </mxCell>
        <mxCell id="72216ZQHOvZ9OeDvA5Sk-42" value="Cognito" style="outlineConnect=0;dashed=0;verticalLabelPosition=bottom;verticalAlign=top;align=center;html=1;shape=mxgraph.aws3.cognito;fillColor=#AD688B;gradientColor=none;" vertex="1" parent="72216ZQHOvZ9OeDvA5Sk-55">
          <mxGeometry x="530.75" y="90" width="76.5" height="93" as="geometry" />
        </mxCell>
        <mxCell id="72216ZQHOvZ9OeDvA5Sk-30" value="Redis" style="sketch=0;aspect=fixed;html=1;points=[];align=center;image;fontSize=12;image=img/lib/mscae/Cache_Redis_Product.svg;" vertex="1" parent="72216ZQHOvZ9OeDvA5Sk-55">
          <mxGeometry x="544" y="220" width="50" height="42" as="geometry" />
        </mxCell>
        <mxCell id="72216ZQHOvZ9OeDvA5Sk-25" value="Secrets Manager" style="sketch=0;points=[[0,0,0],[0.25,0,0],[0.5,0,0],[0.75,0,0],[1,0,0],[0,1,0],[0.25,1,0],[0.5,1,0],[0.75,1,0],[1,1,0],[0,0.25,0],[0,0.5,0],[0,0.75,0],[1,0.25,0],[1,0.5,0],[1,0.75,0]];outlineConnect=0;fontColor=#232F3E;gradientColor=#F54749;gradientDirection=north;fillColor=#C7131F;strokeColor=#ffffff;dashed=0;verticalLabelPosition=bottom;verticalAlign=top;align=center;html=1;fontSize=12;fontStyle=0;aspect=fixed;shape=mxgraph.aws4.resourceIcon;resIcon=mxgraph.aws4.secrets_manager;" vertex="1" parent="72216ZQHOvZ9OeDvA5Sk-55">
          <mxGeometry x="529.25" y="410" width="78" height="78" as="geometry" />
        </mxCell>
        <mxCell id="72216ZQHOvZ9OeDvA5Sk-16" value="Public subnet" style="points=[[0,0],[0.25,0],[0.5,0],[0.75,0],[1,0],[1,0.25],[1,0.5],[1,0.75],[1,1],[0.75,1],[0.5,1],[0.25,1],[0,1],[0,0.75],[0,0.5],[0,0.25]];outlineConnect=0;gradientColor=none;html=1;whiteSpace=wrap;fontSize=12;fontStyle=0;container=1;pointerEvents=0;collapsible=0;recursiveResize=0;shape=mxgraph.aws4.group;grIcon=mxgraph.aws4.group_security_group;grStroke=0;strokeColor=#248814;fillColor=#E9F3E6;verticalAlign=top;align=left;spacingLeft=30;fontColor=#248814;dashed=0;" vertex="1" parent="1">
          <mxGeometry x="550" y="328" width="150" height="182" as="geometry" />
        </mxCell>
        <mxCell id="72216ZQHOvZ9OeDvA5Sk-17" value="Security Group" style="fontStyle=0;verticalAlign=top;align=center;spacingTop=-2;fillColor=none;rounded=0;whiteSpace=wrap;html=1;strokeColor=#FF0000;strokeWidth=2;dashed=1;container=1;collapsible=0;expand=0;recursiveResize=0;" vertex="1" parent="1">
          <mxGeometry x="560" y="362.25" width="130" height="137.75" as="geometry" />
        </mxCell>
        <mxCell id="72216ZQHOvZ9OeDvA5Sk-18" value="Load balancer" style="outlineConnect=0;dashed=0;verticalLabelPosition=bottom;verticalAlign=top;align=center;html=1;shape=mxgraph.aws3.application_load_balancer;fillColor=#F58534;gradientColor=none;" vertex="1" parent="72216ZQHOvZ9OeDvA5Sk-17">
          <mxGeometry x="30.5" y="32.879999999999995" width="69" height="72" as="geometry" />
        </mxCell>
        <mxCell id="72216ZQHOvZ9OeDvA5Sk-19" value="Private subnet" style="points=[[0,0],[0.25,0],[0.5,0],[0.75,0],[1,0],[1,0.25],[1,0.5],[1,0.75],[1,1],[0.75,1],[0.5,1],[0.25,1],[0,1],[0,0.75],[0,0.5],[0,0.25]];outlineConnect=0;gradientColor=none;html=1;whiteSpace=wrap;fontSize=12;fontStyle=0;container=1;pointerEvents=0;collapsible=0;recursiveResize=0;shape=mxgraph.aws4.group;grIcon=mxgraph.aws4.group_security_group;grStroke=0;strokeColor=#147EBA;fillColor=#E6F2F8;verticalAlign=top;align=left;spacingLeft=30;fontColor=#147EBA;dashed=0;" vertex="1" parent="1">
          <mxGeometry x="710" y="130" width="270" height="600" as="geometry" />
        </mxCell>
        <mxCell id="72216ZQHOvZ9OeDvA5Sk-20" value="Security Group" style="fontStyle=0;verticalAlign=top;align=center;spacingTop=-2;fillColor=none;rounded=0;whiteSpace=wrap;html=1;strokeColor=#FF0000;strokeWidth=2;dashed=1;container=1;collapsible=0;expand=0;recursiveResize=0;" vertex="1" parent="1">
          <mxGeometry x="745" y="180" width="200" height="140" as="geometry" />
        </mxCell>
        <mxCell id="72216ZQHOvZ9OeDvA5Sk-21" value="WebClient" style="sketch=0;points=[[0,0,0],[0.25,0,0],[0.5,0,0],[0.75,0,0],[1,0,0],[0,1,0],[0.25,1,0],[0.5,1,0],[0.75,1,0],[1,1,0],[0,0.25,0],[0,0.5,0],[0,0.75,0],[1,0.25,0],[1,0.5,0],[1,0.75,0]];outlineConnect=0;fontColor=#232F3E;gradientColor=#F78E04;gradientDirection=north;fillColor=#D05C17;strokeColor=#ffffff;dashed=0;verticalLabelPosition=bottom;verticalAlign=top;align=center;html=1;fontSize=12;fontStyle=0;aspect=fixed;shape=mxgraph.aws4.resourceIcon;resIcon=mxgraph.aws4.lambda;" vertex="1" parent="72216ZQHOvZ9OeDvA5Sk-20">
          <mxGeometry x="65" y="28" width="69.5" height="69.5" as="geometry" />
        </mxCell>
        <mxCell id="72216ZQHOvZ9OeDvA5Sk-22" value="Security Group" style="fontStyle=0;verticalAlign=top;align=center;spacingTop=-2;fillColor=none;rounded=0;whiteSpace=wrap;html=1;strokeColor=#FF0000;strokeWidth=2;dashed=1;container=1;collapsible=0;expand=0;recursiveResize=0;" vertex="1" parent="1">
          <mxGeometry x="744.75" y="480" width="200" height="230" as="geometry" />
        </mxCell>
        <mxCell id="72216ZQHOvZ9OeDvA5Sk-52" style="edgeStyle=orthogonalEdgeStyle;rounded=0;orthogonalLoop=1;jettySize=auto;html=1;exitX=0;exitY=0.5;exitDx=0;exitDy=0;exitPerimeter=0;entryX=0;entryY=0.25;entryDx=0;entryDy=0;entryPerimeter=0;" edge="1" parent="72216ZQHOvZ9OeDvA5Sk-22" source="72216ZQHOvZ9OeDvA5Sk-23" target="72216ZQHOvZ9OeDvA5Sk-46">
          <mxGeometry relative="1" as="geometry" />
        </mxCell>
        <mxCell id="72216ZQHOvZ9OeDvA5Sk-23" value="Service" style="sketch=0;points=[[0,0,0],[0.25,0,0],[0.5,0,0],[0.75,0,0],[1,0,0],[0,1,0],[0.25,1,0],[0.5,1,0],[0.75,1,0],[1,1,0],[0,0.25,0],[0,0.5,0],[0,0.75,0],[1,0.25,0],[1,0.5,0],[1,0.75,0]];outlineConnect=0;fontColor=#232F3E;gradientColor=#F78E04;gradientDirection=north;fillColor=#D05C17;strokeColor=#ffffff;dashed=0;verticalLabelPosition=bottom;verticalAlign=top;align=center;html=1;fontSize=12;fontStyle=0;aspect=fixed;shape=mxgraph.aws4.resourceIcon;resIcon=mxgraph.aws4.lambda;" vertex="1" parent="72216ZQHOvZ9OeDvA5Sk-22">
          <mxGeometry x="75.75" y="30" width="49" height="49" as="geometry" />
        </mxCell>
        <mxCell id="72216ZQHOvZ9OeDvA5Sk-46" value="Authentication" style="sketch=0;points=[[0,0,0],[0.25,0,0],[0.5,0,0],[0.75,0,0],[1,0,0],[0,1,0],[0.25,1,0],[0.5,1,0],[0.75,1,0],[1,1,0],[0,0.25,0],[0,0.5,0],[0,0.75,0],[1,0.25,0],[1,0.5,0],[1,0.75,0]];outlineConnect=0;fontColor=#232F3E;gradientColor=#F78E04;gradientDirection=north;fillColor=#D05C17;strokeColor=#ffffff;dashed=0;verticalLabelPosition=bottom;verticalAlign=top;align=center;html=1;fontSize=12;fontStyle=0;aspect=fixed;shape=mxgraph.aws4.resourceIcon;resIcon=mxgraph.aws4.lambda;" vertex="1" parent="72216ZQHOvZ9OeDvA5Sk-22">
          <mxGeometry x="75.75" y="120" width="53.25" height="53.25" as="geometry" />
        </mxCell>
        <mxCell id="72216ZQHOvZ9OeDvA5Sk-24" value="DynamoDB" style="sketch=0;points=[[0,0,0],[0.25,0,0],[0.5,0,0],[0.75,0,0],[1,0,0],[0,1,0],[0.25,1,0],[0.5,1,0],[0.75,1,0],[1,1,0],[0,0.25,0],[0,0.5,0],[0,0.75,0],[1,0.25,0],[1,0.5,0],[1,0.75,0]];outlineConnect=0;fontColor=#232F3E;gradientColor=#4D72F3;gradientDirection=north;fillColor=#3334B9;strokeColor=#ffffff;dashed=0;verticalLabelPosition=bottom;verticalAlign=top;align=center;html=1;fontSize=12;fontStyle=0;aspect=fixed;shape=mxgraph.aws4.resourceIcon;resIcon=mxgraph.aws4.dynamodb;" vertex="1" parent="1">
          <mxGeometry x="1040" y="406" width="78" height="78" as="geometry" />
        </mxCell>
        <mxCell id="72216ZQHOvZ9OeDvA5Sk-26" value="US-EST-1 Region" style="points=[[0,0],[0.25,0],[0.5,0],[0.75,0],[1,0],[1,0.25],[1,0.5],[1,0.75],[1,1],[0.75,1],[0.5,1],[0.25,1],[0,1],[0,0.75],[0,0.5],[0,0.25]];outlineConnect=0;gradientColor=none;html=1;whiteSpace=wrap;fontSize=12;fontStyle=0;container=1;pointerEvents=0;collapsible=0;recursiveResize=0;shape=mxgraph.aws4.group;grIcon=mxgraph.aws4.group_region;strokeColor=#147EBA;fillColor=none;verticalAlign=top;align=left;spacingLeft=30;fontColor=#147EBA;dashed=1;" vertex="1" parent="1">
          <mxGeometry x="260" y="296" width="240" height="174" as="geometry" />
        </mxCell>
        <mxCell id="72216ZQHOvZ9OeDvA5Sk-27" style="edgeStyle=orthogonalEdgeStyle;rounded=0;orthogonalLoop=1;jettySize=auto;html=1;" edge="1" parent="1" source="72216ZQHOvZ9OeDvA5Sk-13" target="72216ZQHOvZ9OeDvA5Sk-18">
          <mxGeometry relative="1" as="geometry" />
        </mxCell>
        <mxCell id="72216ZQHOvZ9OeDvA5Sk-29" value="Observabilities" style="shape=image;verticalLabelPosition=bottom;labelBackgroundColor=default;verticalAlign=top;aspect=fixed;imageAspect=0;image=data:image/jpeg,/9j/4AAQSkZJRgABAQEASABIAAD/7QEAUGhvdG9zaG9wIDMuMAA4QklNBAQAAAAAAOQcAVoAAxslRxwCeAABABwCWgAITkVXIFlPUkscAnQAAQAcAmUAAQAcAlAACEhhbmQtb3V0HAJfAAJOWRwCGQABABwCaQAMRGF0YWRvZyBMb2dvHAIFAAxEYXRhZG9nIExvZ28cAjcACjIwMjE6MDI6MDkcAnMADURhdGFkb2csIEluYy4cAm4ADURhdGFkb2csIEluYy4cAmcAAQAcAnoAAkNOHAIoAAxTZWUgUmVsZWFzZSAcAhQAJFBSTkFyY2hpdmVfMVllYXJ8V2Vic2l0ZURpc3RyaWJ1dGlvbhwCDwABAAD/2wBDAAQCAwMDAgQDAwMEBAQEBQkGBQUFBQsICAYJDQsNDQ0LDAwOEBQRDg8TDwwMEhgSExUWFxcXDhEZGxkWGhQWFxb/2wBDAQQEBAUFBQoGBgoWDwwPFhYWFhYWFhYWFhYWFhYWFhYWFhYWFhYWFhYWFhYWFhYWFhYWFhYWFhYWFhYWFhYWFhb/wAARCAGQAZADASIAAhEBAxEB/8QAHQABAAICAwEBAAAAAAAAAAAAAAcIAQkCBAYFA//EAFIQAAEDAwIEAwQFBgoEDgMBAAEAAgMEBREGIQcIEjFBUWETInGBCRQykaEVFiNCUrEkM2JydYKSwdHwlLPh8RcYJTQ2NzhDU1RzorLDNVZjwv/EABsBAQACAwEBAAAAAAAAAAAAAAAEBQEDBgIH/8QANhEAAgIBAwIEBAIJBQEAAAAAAAECAwQFESESMQYTQVEiMmFxFKEjQoGRscHR4fAVFjM0YvH/2gAMAwEAAhEDEQA/AITREX2g6QIiIAiIgCIiAIiIAiIgCIiAIiIAiIgCIiAIiIAiIgCIiAIiIAiIgCIiAIiIAiIgCIiAIiIAiIgCIiAIiIAiIgCIiAIiIAiIgCIiAIiIAiIgCIiAIiIAiIgCIiAIiIAiIgCIiAIiIAiIgCIiAIiIAiIgCIiAIiIAiIgCIiAIiIAiIgCIiAIiIAiIgCIiAIiIAiIgCIiAIiIAiIgCIiAIiIAiIgCIiAIiIAiIgCIiAIiIAiIgCIiAIiIAiIgCIiAIiIAiIgCIiAIiIAiIgCIiAIiIAiIgCIiAIiIAiIgCIiAIiIAiIgCIiAIiIAiIgCIiAIiIAiIgCIiAIiIAiIgCIiAIiIAiIgCIiAIiIAiIgCIiAIiIAiIgCIiAIiIAiIgCIiAIiIAiIgCImDtt37eqAIh27p4Z80AREQBEWCQO5GwygMoh2OD3T1WVyB4E+XdDtnO2O+fBGHLgWuOzv1dzny/FTNyzcvt44p0Ml7rLi6z2KJ5jhqo4i51S7PvthBI6WgjHWeoE+B8ImXmU41fmWvZGuyxQW7IZ8Wj9rZvr8EV0rvyf6AntdRR2bU14guccYHtJpYZGgkZHtI2sbkH1wqu8ZOGmqeGeo/yVqKkxFIcUlZHl0FSB+w7vnza7ceG2VDw9axMyfTB7P2Z5rya58RPHoh74RWxuCIiAIiIAiIgCIiAIiIAiIgCIiAIiIAiIgCIiAIiIAiIgCIiAIiIAiIgCIiAIdhkom4IxnJwQB3P4j96AHIOMkHvt3Xv+FHBTiJxAc2axWF9Pb5Dvca8ewpnDzBLXOf8A1Qd8dhkiauRzhRT3Kkj1dXM0vcKYTdTRJQSVUwd+yXl7YWuHo15Ct5FGI2hoAAGwA7ALkNU8SSosdNCW69SvvzHB9MVuVUsPJdRC39d41vVOqyzIFHQsZHG7yOXZeP7OQoS5jOCt/wCEtygNRUtudnrXFtLcGQ+zw4b+ze3B6XbkhuenAONwtjTs+C8ZfLbY9fWbUGidT0sdSKafomjc3pIif+khljPfIaQOofrxuHgVTYfiLNru6rJdUfVEevLsUt2+DWY0EjIBO2dlgb9lPHGLlX13pqtlqtLQ/nJawSYhCc1cPgMsd32O5Z89sr4HDHlz4o6vrQyosb7FRtOHz3eJ0OMd8R4Ln+W3zI7rto6xhTqdvmLb/PQslkVdPVuRO1rnHDGuc4OAAbuS49hjxPp4r3TOEGuW2+2zS20Us10L5aSikIZP7Bgy+olYPdjib4ufj03VtOBvK5pXQl9pb/dLhNqC6Ubf0BqIGtghd+02Ml248DlTXcbZQ1tPPDV2+nqGVEXspWSRB3tGfsuz3HoVz+b4qjGzbGjvH3ZEszUn8Jq6rNOXml08L5Lb5IrUag08NW4NbFUvz2iP/eYxklucDcr5JLDs7BadiFtJ1DojSmoGUzL7pq13BtHH7OBtRSNe2Ju2zQdm/JfDPBXhV9Z9v+YVkLvI0jS0/FvY/clXi2G36St7/QR1BeqKNcvHCLUXFLVsNPFHPTWSGQOuFyx7sTPFkfgXnYegJWw/Stlt+ndO0lltVM2mo6GFsUMbG7NAHp4/vK7Npt1Da6KKit9HBS00LemOGCMMYweQaBgfJdl22+dlzuq6tZn2dTW0V2RDyMiVr+hFPEK/SaX5ldExsdI2l1RQ1dtqg536NzosTRO9HNLnj19oB4L2XE7Rlg19o6q09qGkbPS1AJBBw+J+Dh7D4OHmoV+kObXWq0aL1vbifrGnr51R47db2te3PoTB0/1lOXDnUts1hoi26ls8wlpLlTtmjd4tyN2u8nNOQR5habIThRVkVvZ8r9qZhpqCmjXJxz4eXnhlruo0/duqSBrTLRVmMMqYf2x5EbBw88ea8d5+ndbDub/hrHxD4WVBo6fN6s+ay3SNZl7nAHqi8yHDIx54WvHHSOjG7djnv2Dhn1w4fgvoGiams7G3l8y7/wBS2xrvMh9QiIrokBERAEREAREQBERAEREAREQBERAEREAREQBERAEREAREQBERAEREAREQADJA6i3fuADj71LfKPoLSut+IVJS6jnlrOqR8jLRSMdmUM+3PUPOzGNOBj7T8jG2VEh7HbKuV9GlYbdDoq+6g6WuuFRXCmediY42tBDR5ZJJ9VTa/kSowZTi9n2I+TPorbLKWe30drt0NBb6WKlpqdvRFFCwNYweQA7LteCIcZC+Xybb3ZRvnlg9tlGHEO6HSHHnSt4e4tt2qYJLHWuc7DWTtJmpCB+04uqGf1h5KTznpOFEHO/apq7gBcrnSA/XbFUQXGkcNixzJGguz6Nc4/JSMWKlcoP14/f2PdfzbEut6XA9j548f84SNoYeloAGfAYXn+EupItX8ObLqSEtxcaJkr2tOQyTGHt+Tg4fJeibsVqnFwk4vv8A0PLTTaOSJlYyF53MGUTIQLDBg+HxXntcWi71tH9bsF4dbLpAD7Bz2GWmk/kyxZHU0+YIcMbHuD6JcZPs/NZi9nuN9iANe6wsXELh1qzh1xDoDpvUdtt0lXNSvcHse2IGRtVSykD2jfdBxjIGc91B3JbxtdoC+HTWpKgnTl0nyJ3ZxQTEDD8fsO6ve8sgq03MZwltHE3SroJHGjvVG177ZcY9nwPI3aSO8bhs4HwWvDVVhuOndR1dhvFIaavoJXQTwOBAaRgn+qerIPiF2Oh0YubjWUS7vnb2fuiyxlCyuUDalTTw1UDZoJI5opmBzXMcHNc0jYgjvla4ua3TUOlOPmorZTRmOnkqzV07enA6JmiQ49A90gHwx4L6nBPmC1zw3t5s9Kaa7WmP+Ko64uDoM9vZuG4b32K8VxY1ndtf66rNU3oQtqqwMb7OHPs4msBAa3O47/NS9G0jKwcyTk/ga/ee8fHnVY/Y84iIusJ4REQBERAEREAREQBERAEREAREQBERAEREAREQBERAEREAREQBERAEREAO437eI8/T59lP3IFxHh0jxGm0tcpmQ23UrwGPcdmVbdmEnw6m+78goBXKJzmSNe17mOaQ4OacFpG4IPgR4FQ87Ehl47pl6muytTg4s2ytIOcFZHdVy5PeYKi1TbqXSGsq1lPqCCMMp6mQdEdez9Xc9pMbH9ruFY0Fuc5+K+VZeJbi3OuxbNfmUVlbhLZnJeP4+xU8/A/V8VQW+zNhrOou7NxA85+Xdeuc5uO4UHc9XEKi0vwertPU9XH+WNRx/VKeHO7IXbSyEeXQHNHq4LOHVO3IjCHfdCpbzSOl9HPfnXPgbPa5ZHOfZ7pNCwO7iN+JW/LL3j5KfjhVV+i/fIbBq8YIidVUj4y7uSY35z9zfvCtT4bqTrFaqz7Ir3/itzZkra1nI481xzkZ6hhfL1rf7ZpfSlfqG8VAgoLdA6eokIzhrR4DxPkFSjitzW68v9wmi0k9mnrYT+hIjD6pzfB7nHYfzQF4wNMyM5uNa4PNNM7Pl7F6upmPtg/Nc2keBVGeVLjPrCs43Wqg1rr28VVtrnPhZFUOY+J8xbhgfho6QT4/BXkjzn4LGfp9mDaq7O/cXUuqXSzmuMv2VyXGYAxkHx2UI1FbeInNbS6T4sXDS02kzW0Nsqfq8lXTVrTI52wOGkYyCcEZXi+dO26Z4h8Mbbxq0ZLHUxwObR3I9Ja8xuPuiQeDmOd075+2MbLxPPTw5qdI8XK3UUULvyNqWZ1UyU7NincSZmF3gS4ucPRw8l2+V95u/L/xdsFTK6SjhsjLlHHnIjlZHK73fLPso/uXZ0YuNRjU5uM9mtk+e+/csoQhGMbIPn1IJILcsP8A3Z6R8FhHZLhv4fv33RdqlwWKQREQyEREAREQBERAEREAREQBERAEREAREQBERAEREAREQBERAEREAREQBERAEG/l80RPsDMReyVroyetm8buvpcw+hVheAvMvr+zRts1zs0+r6WmpjI0R5FbFEzAJ6gD1gZHcZCrz647b/dup1+jsdHHzDFsuD7WyVbASM9f6SEj9zlU6zVjvFnOcOrZft/eaMmMXDdo9lrznMnq7U+l0jpYUdW4EGpuNU14h+DGgZcO+CoGo7dxA4u6xlqaeCu1Fdqx2JKlwPs4x6uHuxMHfAOdvPZbHblovSVfUGordN2qolPd8lGwk/gvqW+goqGAQUNHBTRgYDIYmsaPkAuPxtax8ODWPR8T9W9yuhlQrXwRI95W+GDeFnDltnnqBU3KtndV3CVn2PaOwA1v8loAHqcqSzgjCNBHdZwufutnfY7LO77kWcnKXUyG+fCguFfy2XptAwv+rzU9TUtH/gsla55PoACT8Fr6cc/pS7YjJJ2yT737ltkr6aCspJKapibLDK0skjeMte07EEeIUX6Q5duFGn7zPcoNLRVk80jnt+vvNQyHLurDGuOAAe3iui0bXIYOPOucW3vutv5kvGyVVFxaKMcFdK3vVXEaxUlooqmRr7lA51SyJxiiayRr3FzwMDZvnlbOojufmfxX4UdDS0kIhpKaGBgGA2JgYAPgAv3jDhgFuNlX6rqctQsjJx6VE05F7ulvsc1xk+z2J9B4rksOwBuqpmg6V2tdBdaN1JdKCmrICQTHURNkaSPHBXwb5oexyacvlDabTQW6ovVulo5ZoKcM6g6NzG9WO4HUvVZGMhYcR05C9wsnHbpfHt6GVJr1NVestP3bSup63T99pXU1fQymOZpbjrOT7/wcMEYXzPE+ndXn56OEcWs9FP1hZKT/AJescTnyCNuXVdMAS5mPEjYjxwCBnKowRgu2weoggeH+f89wvqGkalHNx1L9Zd0XmPcrYb+qCIitjeEREAREQBERAEREAREQBERAEREAREQBERAEREAREQBERAEREAREQBERAEREAPZSnyX3tlk5j9PSyvDIq58lG9zuw62OIHzeGD5qLF+9rrqm2XGC5UTumpopW1EJ8nsIc0/eAo2XV52POr3TPFi3i0bYG9h691yHddHT1X9esNFWlzSZ6dkji07ZLQV3WkdQHxXyBrpezOffdo5IiIYCLBcB3KBzT2OfggMomUygC/Ksljgp3TzSMjjiBc97yAGgDcknt8V+q8/xU06dWcPLxpttXJSOudG+nbPG4h0ZI2OR4Zxn0yvUEnJJjj1Iz19zQ8KtNVUtJT3KovdTA4sey2Q+0Y13l7Rxa0j1aSo3unOrTNm/gHD2eSIfrzXVrXEeHuiI+OPFVz4qcOdV8Ob1+SdSWp8DASIKqIF1NUAAe+x+MAHyO4wcrzVFTzVVbBS08DppqiRrIYmjLpSSBho7nPbbzz4LvMbw/pnlKzfqX3LeGLRsuTY3y3cUYeLWh6q9ttL7bJS1j6SanfL7UbNa7IdgZBDhthUr5u9HU+iePF4ttFE2Kiq+ivpGD9SOXJLR8HtkHwDPJXX5XNBHhzwbttjqW/8AKEzfrdyOQSah7R1DbyAa35Ksn0lHs/8AhptYaG9f5EjL/PHtZcf3qq0O2ENWnCn5Hv8AkR8aSV7jHsV3REXflqEREAREQBERAEREAREQBERAEREAREQBERAEREAREQBERAEREAREQBERAEREATAdhp7EgFEHcHfY52QFtuX3mWobboUUeqY5vYWaG3UXUC3rwY3Mlmx3LWlrSR3wT5FWsoJ4qqnjqYJGyRStDmPach4I2I9CFqdj2cHZAIAHbOcHIJHYjwI8sqzfKjzB3Kl1BpPQ18LjbPqxtfW8g9Dur+DPLsZ6g0iJ3hsHZXE6zoHSvPx177orcnF46olz874WHdlwiIPYk77ErmTsuNK0+Zq+9UmntP1F5r2zmlpGh87oIjI6Nmfef0gEkAbnA7BfpYLrbb3aoLpaa+Cuo6lgfDUQSBzJGnsQQu5IwOaWkAg9wfFQLxN0Jrnhzd6rW/BubrpppHVF10tIS+nqHHJdJCO7Xnxa3fyB7Ldj1xt+FvZ+nse4RUuCfMgrIzndQpwb5k9Davkjtl9kdpm+B3spaS4u6Y/adixspwOrP6rsO9FNEUscjA+N7XtcMhzTkEfFYux7aX02LYxKEovZo/RcJvsjfxXLIXCVzejd2Fq7nnY6GobNaL3bn0V7t1LXUr93RVMTZGHYjOHDvgleN0Nwr4S2bVM1z0xpq1w3O2y+zlfCS76rI5od09JJDXdLmntkBw814Dmf5kLNouCfT2jaqlueo8fpHhwdT0X/AKhH2nbY6R2zvheD5fOZbQmjeHItV5t9+qLw+okqa2qDY5XXGeRxJkL+v7WA0e9jADQOytqdOz1jdcE0n6EmNV3R1It4dvFa8udrUUepOYq9Pp3iSC1Njt8bh/IaC77nvePkpsvfNdc77S1Fu0Fw4vdVWVETo6eWoHvxPOwf7NgeHAE5774woLsvAHjJqWY1b9H1kJmldLK+6VDKV5e4kuLmvPvHJJyB4q30CiOFdK/Kajxsk2jfiw8qTlN7EXDc4HgjSDjDhucDdWO0zyca8q3sdetQWS3NduWw+0nez5BrWn5OUg6d5MtI0zc33VV4uB8W0rGUrSfXPtDj5hX9viLT6382/wBlv+fYlyzKl3e5S8uaDhzg0+ROCs/v8vFbENNcuPCGzNY4aTirJWDd9ZUyzdQ/lNLug/2VUznhsNs07zAVdDZrZS2+hfbqWWOClibFGD0EOw1oA8O6xga9Tm5Hkwi+z5ewqyoWTcUREiIr0khERAEREAREQBERAEREAREQBERAEREAREQBERAEREAREQBERAEREAREQBcopHwysnie5kkTg9jmnBa4HII+YXHy3AycZKRnPS8NJAIIONj4/wBy8T2cGmYfKNqHD67/AJf0NZr5gA3K3wVRA7Drja7+9fY9V5LgNbauz8F9K2uuY5lTSWalinY7u14iaHD5HZet7jC+O3JK2SXY56xbSexg9u6gzWnNZwz0/c6y2vivVXUUNRJTzNio+gdbHFjgC8gHcHfx8FOfZUm0xarVR/SH3Cz3O30tXRT3GpYIKmFskbnSwNe09LgRnqcSPVT9Mx6blY7d/hjvsuDZTCEm3L0R5XmI1zw/4nTuuWmuHV6t19d7r6qOKItqAe/tY48h59fvyvO6Q4g8WuGEMP1C43m2UrgOilroXOpXgfsMeCGj0b0rYzbLZbqCMMoKGmpWgbCnhbGB8mgLN1tdvutN9WudBTVkOc+zqYmytz8HAhWNeu0wrVTo3j9Xv/E3rLUV0qPBSag5wuJTKYiotun6p/TtIykkZ0+uPaHP3rynEDmH4ra2pjbJLy2hhqB0fVLTTmJ02dsEguee/wCqR8FcO98vfB+6VhqqnQtubKTkugMkQJ+DXAfgvu6D4V8P9GSe103pO2UM3V1e2bF1y5/nvLnD5FbFqelVrrrx/i/Iz59EeYw5K58r3K/HcLf+cPFCil6ahgdSWkzPY5ucEySuaQeo+QPjvurD6X4R8NdPtDbXomzRkfry0wneP68nU78V7UNwU3CpsrUsrJscpSaXtvwRrLpTe++x+VLTQU0LYqeFsUbdmsYOlo+AGy/RjQDsFnPmjSM+Kgbt8mo5BYf9koSAvzrJ4qemkmmeGRxNL3uPZrQMk/csg+Bc9X2yj4h2vRzpWuuNypp6psed44owMuPxJAwqg/SUUgh4zWipwAaqzZ7d+mQhdvhDxGl1vz4U+pHSN+qVH1i329oPam6CGf2uku+fovpfSc0QbqTSlxwMupKiDON/thy6jS8SeFqVMJd5R3/eT6IeXdH6oq0iIu/LUIiLICIiAIiIAiIgCIiAIiIAiIgCIiAIiIAiIgCIiAIiIAiIgCIiAIAScBPgM/BYb0yMy0hzScZHj54/zhGPUy0OdnpDj6t8fgps5MOEFRxC1rFqC7Up/N2zzh0znD3KyZpy2Fp8QO7iNtseK6nLHwGvPFGuiulwbLb9NQv/AEtd2kqsH7EGfxd4K+ekbDadL6fpLHYqGGht9FGI4YImhoaP8T3J8SuT1zW41RdFD+J937f3IOVkqHwx7n0Ym9OANgF+iwSO6xnK4FbIqOe5kqmXH8N079IBYLq1vTHNU2+peTsHF3XGd/g0K5hOyp39IvTi38X9GXyPLfaQfpHY7GKeMjf4OcrjROclwf60Wvy3JOO/jcfoXDYBgDy2XNuF1rXUR1lugq4s9E8bZW58nAO/vXYHdVD7kf1ZyRYyEyFkGVh/bJ7IXY8CvznmiZA6SR4YxjepznbAAeKd+wPDcwvE628LOH8moaynNZUvkENFQtf0uqZME9IJ7e6Ccn+9dbgdxm0dxNo2i01ZprmyMOqLZU+7NGds9P7YBOMhUy5vOJzuJHFOU0k7jZLOXUtuZkgOIP6SbHj1HpA9APNRjaq6uttdFW26rko6qB3VDPE9zXxHzBG+V2WN4ZjbhKUntY+fp9iyjhJ1Lf5ja91N6e6gnn64hfmpwoGnaCqdFc9SONOOh2Hx0w/jXj45Dc+blH3L3zXtYyGx8TwWj3Y4r1EzIHgDUNHY/wApu3mFCvNHr9/ETi7cLvBP7S10rjR23pJ6TEw/b38XHJ9RjyUPTdBvjnJXx+GPO/ozXViTVvxdkdTliqm0PMHoydzuljbtGHBgwBkOGPhuPgrEfSdUzjpLSVUG/wAVcJ2OOfAxDH4hVW4c1bqDiDYq1hw6C6UzgfL9K0fuJVx/pIqUTcDqGtDeo016hAI8A/qH9yt9T/R6xjyX2JFvF8GUf8cIh+0UXV7bE4IiIAiIgCIiAIiIAiIgCIiAIiIAiIgCIiAIiIAiIgCIiAIiIAiJ/u2QAjbuPQ52P+xWK5TeXSo1k6n1draGSCwk9VLRO9yWtx4n9mE+Xc48l4vk/wCG0PEfixBBWxl9ltkYq7kP1Zmg4ji+DiMnzAIWwylp2U8EcEDGxxRtDWMYMNaB2AHwXI+IdZnQ3jUvn1ZAy8jpXRHucLbQUtut8NFb4I6amgjEcUUTA1sbR2AHovg6n0/qWvybdristn7Iit1NKM+vW05C9Rg4WCDjZcL1NPf1Krqe+5COrbpx+0FG+4so7Jr+1Re9KykpjRV7W+PSxpLHbf7j2Xp+BvGbSHE6mfHap5KO6U4xU2ur92eEjvgfrDOfI7bgKReg56turzVYec7hZV2Krbxj4eufa7tbz1XU0jcF0ed5unscZ9/tluT8bDGVGT+isXTJ9mu32aN0Omfwvhln9iqu/Sf27r0Fpy6xt/SU9fLCXDwa6Fzh/wC5rVKfKzxZo+KeghVyNbT3mgDYrnSB2eh5Huvb/Jdg4zg5BGO2fO/SD0BrOXSqqmR9T6C40s2/g32ga7/2kr3gV2Y+owhPh77fv4PVUXC5Jkm8Ha9tz4Waer2nqE1rpyT5kRtB/EFelPZRbyYV4r+WrSzi8ufBSup5CfNsjv7iFKLjgZUHKh0Xzh7Nr8zTNbSZ+VbUwUdHLVVUzYYYGl8kjzgNaBkknyXzNKas01qalFRYL5QXKMjq/g07XkDzLQcj5gKuf0hHFgUFqHDSyVA+tXCMPu72n+KgPaI4OQXd/A4A81UG3VNRQVYq6Gomo6hpDva07yx5cNgQRjAxjvkjzV9p3hyzKxvNcun2JdOHKyHU3sbYHOaQCCDuq+c/HFJ2lNCN0fZ6rpu+oIyJnMdh1PS7h59C/wCyP6x8N656G5jOLGm2sjOonXenaQTBdW+3LgCPd9p9oAgEbHbOfBeI4navvGu9cV2qL25hqq14xHHnogYBhrG5ycAeZ8M+Knaf4aury4yv2cVz9zbThSVm8ux8DABPSds4Ax2A7f4fIIiLt9uyLHbfkDuDjx333+SY3ztk7uIzuf8AZuiJx2Mn60U31ashqc/xMzJP7Lgf7levnYi/K3KXJXDP6L6lWfdg/wD+lQ2cdUEjMZ643N+GxV9uLMxvvIXVVLWh75dM08g+LfZ7/gVyviD4cnGs/wDX80QcricH9Shjxh3l6euVhZecnODgk4+9YXVJ8E1PcIiIZCIiAIiIAiIgCIiAIiIAiIgCIiAIiIAiIgCIiAIiIAiIgCAZIG/cYx8UQ/v2QFzPoyqOmboLUdwaWvqJroyJzgMFkbYmlrPhkkj4qzrVQXko4vUHDbV9VatQyujsV7LPaVGNqSce62Rw/YIw0nwwD2zi+dDWU9XTRVNNMyaGZofHJG4Oa9p3BBGxHqvmOv49tWdOU1w+zKTKhJWNs7CLGfRAVSkYyV1rpRwV1vno6qFk0FRG6OaJ4y17XDBBHiMFdlYeMtwnYFENDT1PALnCkss00jLPU1X1Scu+y+lnIdFISe5YcAnxLPUq0/NXQi6cu+raZrQ+RttkliaD+uzcfuUDfSYWAU+otNashjHVNG+jlefF7D7SP8DJ+Cr/AH/iRr+90rqS760vlVSFoYad9c/2cjRt7zQQN/n2XZ1afPUo05kJbSXzfsLNVO/ps7e5cL6OavFVwCfSF2XUd3qG9J/Va7pc0fvUjcwPES38M+GtbqOscx1QB7Khp3Heed32W/DxPoFB30YtdnTWrLa93vx1sM7WdWelpjLf3gKKuevW141Fxtr7DU9cFu01L9Wo4muw17y0OfKT26jnG/koK0z8TrM6Zdk939v7mryOrJcWRFqO61991BW3q6VDqitr6h01RK7uXHcj4DO33LpICMe7jHbp6uoj5rlTRS1E7YIIZJZHnDWMYS4/Ad13+8K4r0SLXZLg4oSB3IHxXtdNcIeJ9/c38maFvb2u3D56U07CP50vSPxUhaa5SuK9xw6uFotAIyfrNcXuHyiDgfhnCiW6ph1fPYjXK6uPdkEDP+SnjjsfUgfvVuNN8l1K17JNQ66mmHT78dDQiPB9HPc8efdq9/p/ld4N2Cn9rcaWsuQi94y19eWNb6lsfQz7wqu3xLgw+Xd/ZGh5la47lCBggkOaWju4HYfEr7WmtIaq1CGusWm7tcmOOBJSUMksf9trS0fMq9Yu3LfoE+2pqjRVHNB3dSiGadvx6A56+RfubPhNbCWWsXa7HGzqOh9mz5+1LD+BUZ69l28UY7f3MLKsfyRK2aW5bOMF3kjc7TDbdFJsX3CrjYAPUNLnD7lbSDR900/yezaNvrqeevt+mZoJzTPL43PYxzvdLg0kbDuAoe1JzpVBc5un9DRj9mWury7PxYxox/aUb645oeKuo6Ooo2VVrtlNUxujkipaFrupjgWuaXSdR3BPbCj342sahKErYKKi90a5wvta6lskQvCeqBjsk7Dv8MrksMaGMaxo91jQxmwGGjYDA2WV2cVsWO23AREWQEREAREQBERAEREAREQBERAEREAREQBERAEREAREQBERAEREA3HY4PgR4KwHJlx0qtE3im0ZqSp69NVk3RTSPO9ukcdsEn+LJ7jwJ2AGVX9M43wDjfc4CiZuDXl0uqznf8jXZVGxbM2zRSCRgeBs4ZC5hQ5yUcQma24M0VJWVRkvFiaKKtD3Ze9rciKR3q5gBPrlTC1wyAD8l8mvplTa65d0yhnFwk0zmsO7eaZWJDgFam9jyVr+kzMI4V6ea8H2n5c/R4x/5eXOfTH44VK84GcZHirC/SG68p9Q8SqXS1vmbJTaejc2oc07OqZMEgefS1uPmVXrfwX03w5jypwIqfryXWJBqrksp9GbW+y4kaht7n/85tUb8Z7uZL/gVNPETln0RrPiRX6xvtzuzJa4tc6mpXxRRggYJJ9mXHPnkFUe0Bq/UWiL2+76WuT7fXSROhdM1jHn2bu4w8Efh8F3NR8SeIN96xdda32pZJkOjNc9kbh6sbhv4KJmaPmWZssiizo6kt/c8WY9js64vYuqeFXLnoXofd6HT1O/IPVerl7UuPwmeRn4BYn478v+i6Z1LZrnbGgH/m9ltxLXH0LGBn4qgjSQS7J6j3LR05+OMZTORuenHYNzv8d15j4adnN98pGFht/PIuVqXnM0tT5Fh0fdq0js6sljpgfh09Z/BR/qTnF17WFzbPYbJbGO7GQSVEjfg7LW5+Lfkq6eOf8AainU+HtPr/U3+7NscWpehJOo+P8AxfvbXNqdbV1Ow9m0bY6cj+tGxp/z3Xhb5fL3fKgTXu8V1xkB+3V1Mk7vve4ldBFZ1YWNUtq4JfsNyrjHsjBG422Hrt9wWXHPgM9sjP8AeSiKQoxS7Hv7AAAeqIiAIiIAiIgCIiAIiIAiIgCIiAIiIAiIgCIiAIiIAiIgCIgQBFlwLftAjPmFgkAZ3+5AEQ52PS7B8QNkRchchET5E+gGSgCfPCdvtBzT4Ajumx+yc/ggPv8ADjWeo9CanjvumLi+jqYx0uaT1RSs7lr2HZwP4K13DXnD0zV0sMGt7PWWqq6cvqKNpnp37dwB74PpggeZVMticZ28SCM/cmTjYdPhhriBhVefpGLmPe1c+6NFtELfmRsDqeaPg1DSid2oatwI91rbZOXO+A6VEfGnm8qLja6i1cPbVPRGZhZ+VK7AezP60cYJ3/nYVWQR64+JBHwI3WO57lx8NsKBj+GsKqXW25fc1QwqoPdnOommqKmSonlklllcXPe9xcXknJcSfElcE8s7ZQ59PX3sYXRdKj8PsTPt2CJ4d0HxXrZgIgITb1+5YARD6ficJ88oAiIgCIAfkO58k+RPwGf9yAIg+f3IgCIhOEARMHp6ul2PggOUAREQBERAEREAREQBERAEREAREQBERAEREATGdvNEHcICwnCzlVuusuH9q1TTatoaSO60zZ2wPo3vdGD4E5xn4L7/APxL72N/z5t/+gP/AMVPvKoS3lq0m5mxbaWEH5FVJufM9xjhuNRHHf6BrWSua1v5MjcAA4gbk5PZcPRmavl5FldFi+Fvul7/AGK2E8iyclGXY9hceTHVEdITRaztMsoOemWlkaHemR2UJ8V+Ges+HNayDVNnfTxzPLIKqNwkgnI391427eBwpQ0JzbcRrZd436lioL1QF/6aKOnEEzW53LHN7n0IwrZVtNpTjHwf91sdZab/AEfVC97cljiPdd6Oaf3LZPUtV0+2P4zaUGZ86+p/pOxrPJHgScEg7Ywv3tdHU3C5QUFJEZJ6qdkELAd3vcQGj5khdjVlqqtPakuFkrCPb26qfTPx2d0uLQcdxkDPzU0/R+6D/OXjA7UdVDmg0xH7dvUMg1DxiMeWzcu+YXTZubCjElf6bcEyyzoh1Hpqbky1AaNskutLfFI5oL4xRvPSfEZz4HxCrjquzV2n9SV1guUXRV22qdTzMdsQQ4tz8MgrZFNxIskfGyHhm5w/KM9rdXMf1jGQ7+LI8y0hw8xnyKq79IzoQ2rXVDrmiic2mvcX1esLR9mdgAaT59TceuWuK5rRtYy7Mnysp8SW64ImNfNz6Z+p43lz4EV/FqwXC6Uuoqe2C3VYpnRTUznlxLGv6hjww78FIo5L72e2urf/AKA//FQrwq4u664c2yqotJ3GmpKetm9tL7akbKXPDQ0d+2wU9coXHDiPr3jNBp/U12pKigko5pHRxULIyXNAI94bjuPuUzU/9XolZbVNKtcrt/Q9X+et2n8KPnjkuvf/AO9W/wD0F/8AivhcT+VO66N4fXfVNTq+iq4rTSPqXwMpHMdIGjOA7OxU288XEnV/DfTlirNJ18FLNW1kkcxlpmyhzAwkDB9cKr2sOYfitqfTFdp+8XmhmobjC6CeNluZG5zT3AI3UTTrdYy4xu8xdG/Pb359DzQ8me0lLgiz7DSHHPS3IPl81YzQnKTqTUOjbXfJ9VUtufcKZlSaV9M57mNcOpoJHjgg/NRjy1aIOvuM9nsb43miil+tV7x/4MZLnDPbfZvxKvpr/iJY9Fas0rpy4YbLqSrdSw9LgGwAN2cf5PV0t+aka9quTj2Rx8d/F3fG5nKulB9MO/qa+eNGhbjw54hVulbnMKiSmbHJFO1ha2aN4y17QfDIIx4ELyhVzfpHdCi5aOt+u6OI+3szvq9aWtyXU8h2JA/Zfg/AqmTgRnIxg438/FWuj5zzcWM5P4lwyTRZ5le7JB5eOFtVxW1RV2Oju0FtfSUv1l0s0RkDh1dOAApi/wCJhes/9Orf/oD/APFfJ+jU/wCt68/0R/8AapE54OLmueHGrrHQ6SuVPSw1tC+WYTUrZsuEhAxntsqXUM7UZal+Fx57LYi22W+d5cGeRdyXXzpONdUGf1f4C/v968NxO5X+JWk6CW40sdHqCkgYXyvt5c2ZrRvtE7d3yX50/NPxmjmY43m2SgHJY+1swR49jlWX5VOO1NxYiqLTc6GK332ijEskMUmY6iMEAyMB3ABc0EHzXjJyNcwkrbWpR/z6IxJ5NS3b3RQI+7nqy0juHDBBzjGPNdi10NbcrpDbbfSy1VZUSCOKngaXySOPg0D7Xr5KfvpB+HdHpjXtBquzwMhp9RCT6zExgDI6lvT1Px4FzXdR9WZUjfR18OaKi0Q/iDXUrH110e6Kge9ufYwNIBczPYueDk/yfVWt2t1w09ZcV34S+vqb55S8rrRG2guUbX14pIqu/wBzttia8BzqZ4dPMAfA9PutK9TLyXVPsXiLXjC/uzroPdPoSD2X3uavmVuGj9V1OjNEU9I6vo2htbcJ2+0bTyEA+zYzsXAFpJO3veihKk5meMkFWJzqSCYNPUYpaJhY/wBCPAfBVNT13Jh5ykkn2NMPxU+U9j9uLPLTxF0RQTXOKOmvtup2F8stuDvaRNHcmE+8QB4hQ6Rtn+T1b7HHwWwflW4z03FrT1RT1tLFRXy2saaymjd1Me07CRmdw0nbBVaOe7h3R6L4pQXW00zILZqGN05ijZ0tiqGnD2t/nAh2Oyl6XrGQ8h4eX8y9TZRfNzdc+5Ctroa253KG326knq6upf0QQQsLnyuzsAFPGgeUjiFe6NlZfK23WBjtxBN1TT49QzZp9DlSp9H1w0orboP/AIQblAJLnenOFG6RoPsKdpIa5vkX98+WAuHM9zM1Gj9Tz6P0RRU9TcqMhldW1I64aZ5GehrR9ogbnO261ZWr5eRlPFwV27tnid85z6Kjzn/Erk6s/n43qx3+ob/fleK4tcrOrtGaYrtRU99tVzobfC+oqG4fDK2NjSS7fZ3wC+BLzL8Y5Z/a/na1vVuWx0MbWjc7AL6Vw5nNd3rRF40zqWmttxhulDLTe3jYaeWEOaW9Y6chx3Hfy27rbXTrtc4ylNNb8r/EZUclNNvghQY8Dn+/1CLDQQ1oO+Ggb7n/AHf7VldQtlEnBERAEREAREQBERAEREAREQBERAEREAWW9wsLLftBYfYGx/lV/wCzRpT+iGfuK10Xn/8AL1f/AK7/AP5uWxblW25Z9Kelob+4rXVeN7vVYyAZ5Dl2wx1OO37vBch4d/7uR9/5sgYn/JM6pwBkkgebe4V6fo5qqon5fHsm+xTXiqji3/Vwx2B6Ak/eqN0dPUVVZDS0tPLPPUODYIom5dMTsA0eJz4BbG+V/RknDngfa7JcwyKsZG6quBzs2R/vO39GgA/BbvFV0FjRr/WbM50l0pFIea9rYuZHWYjaGgXUkgD/APjG7+8q4nKTpGm4acv1PVXdjaWprIDdLm894wW9QBPj0sCrDoOyDjLzg1lUW+0tk94lr6p7clpghcAN/wCUGsA88qwf0gGt/wA1uDH5BopRFXail+qsaw4LYG+9K4Y7YAaFA1KVlsMfTovnZbmu5ykoVFS9QcUq+p4+S8To6prKltzFZTMfO0AQtJaIQSe3s8gD+WVePjFYbbxj5eahltDZ/wAp0Da+1SN7iZreqPpPgTlzP6xXgeCfE7gDo3hhZ9OSautNRPR0/wDCZnW6ZxfM73nnJiO+T5qXOGHETQmvKeoj0VfaS5Nt/S2aOCN8fscj3fdc1uPTCgankTlOEq6XFV8J89l29DTfJ7raO2xrIkZIxxZK0tkY4NkBGCHAeI81Nv0fP/aOpP6Oqf8A4tXU54tC/mbxrqq6lg6LfqNproMD3WydX6Vo/ruzjyIXb+j5/wC0dSf0dU//ABauryspZOkSsXrH+RYTmpUN+6JZ+k6/6G6X/pCX/VqnAwThx6QfEdx6j1Vx/pOsnR2lwP8Az8v+rVT9A6ertV60tenLezqqbnVsgj2z05O7iPIDJK1eHpqGl9b7Lf8AieMT/hLd/Ry6FNp0DW63rYAyqv0ns6bq/UgY7Bx6OkaT8s+KgPnG4gDVfHy41VJWRsprDK2jt7jNt1Rk5kA8MvDx/UCuFxpv1v4QcutQbWwRNt9BHbrTGd3OkLRHHnzx9o/MqGeUXX3BnQvCOKDVGrLc6+XGofV3Bk1LNO6JxcWhhd7M9sE/FxVDi5FkrbNQdbnu9kv8+hFhNtu1rf0Jm4RXy28ZuXannrZI5m3SgdQ3ENcHBkzR0v8AnnDvmtfeutP1uldYXLTtwYW1Nrqn0zwfHpOzvgQQVsT4a8V+F+rrwbDo7UdFV1ns3TGlp6eSLLR3dhzGjthV0+ke0IKLVFs17QwdMV1aKKuLQd5mjMbj8W5b6kL1oOZLHzpUTi4xnyk/RjFn02uLW250fo1P+t+8/wBEf/au39Jv/wBYGmP6Ml/1pXT+jVOOLt4cNw6zhzcesmfkV3PpNcniBpk47WyX/WlT5ceIYp+38mbH/wBsrMpa5G6iaDmd01HFK4CdtVFJ/LZ9Vldg+mWtPyCiXwJPYDfH4fiQPmrK/R06DuFZr+fXtVSOZbrbTSQUkr2kCWoeA13QT3DWl4JAxlwwTurnWbq4afZ1PuuCVkNKt7kifSZRtPBuyTFo6m39jQ7HYGnnyPngKUeWmniouXrSjKZrQDZoZi0eD3t63D+04qDfpONRQ/UNL6WY8Oc6aW4zsB7Na32bD8+uTH80qTuRjUUF+5drTB7X2lVaHS0FU0ndrmvLmj4dLmj5Lira5/6PXJ9upldKL/DRf1KIa/rJ6/XV6raiQulqbnUyyZOcOMziR8s4+AHkvkdiCMZHbKkHmf0TcNDcYrxRVNM5lJX1ktbQzdJEcscjy73T2JaXdJHn8VHzshxbg9Te4dgY/ux6r6Dh2V2URlDtsi0ra6FsTf8AR811TTcxtNSwveI6211TZ/5QY1rm59AVLf0m0EJ0JpmqIPtYbpKIzjI3h3z9wXkvo39E1s+r7hruppyyhpaZ1HRyuGBNI8jrLfNoaO/mvrfSa36B0emNNxzfp2Plr5257R4Ebcj4/h8FyWRKNviCPl+n9CDZzlcE/cv9NHbuA2lqelAkbDZoOgDs73c4+9a2tSVVRcNQXOrqC6Sepq5ZZy52xeXHfOfHYei2C8muo4NQcumnTA8PmttOKGpGcYliODt4A7EeY3VMOZvQFfw74uXG3yUj2UFbVPq7ROQOiWJ7urpBP6zScFvfYeBCz4esjVnXVz4k/f7mcTaNslI97yt8vFDxS0JUaovN/uFtp3Vhhom0ccThKxoGXe+04GSRt4g+i9ZxU5T9MaV4c3rUtPq6+1MlroZKpkMkNOGPcxvUA7pYD4fioO0PxX4iWCmobJZ9YXKioKeQNjpo5WsYwF2SCD45d5K+XMUXHl51YSck2OfJ8/0Z3WNSu1DGzob2fDOXCXbbcxfO6FiTlwzWmDkdW/vHJGdgcDOB4IjfsD/PgEXbLsWXrsERFkBERAEREAREQBERAEREAREQBERAEzjfy80RAbHOVWro2cuulIJamJpbbGNfmQbd/VfJqOAHAqeeWV9gpS+Z3U8i5SjqOc/t+a19dTh04c4BgIb7x2HonXL/AONJ/bP+K5N+HLVZKyu9x3e/C/uQHhy6m1LubHdO6O4L8NZPylQ27Tlnna3arqJme1wPJ7z1H5KGOa3mVtFZpur0hw8rXVEtYwxVt2ZlsUMf67IyRkuIyM4AVSHe8MOc4/zgHfvCO3JJJy77RB3P+fuW7F8Nwjcrcixza7bmyvDUZKU3uXR+ju0nQaf4dVmsa18EVXfpOiEOkGW0sZ9zJztknPYYx4qCedTXR1rxwrW0czJbfZGG30pactJacyv+bzj5KJhI8EEPc0jGOhxbgDwGO3yXEfZIcS7t3Owx4/EkqZi6R5WdLLsl1N77I9Qx3Gx2NggHcjqcNw5wBcD/AIduylDlF1+7QPGi3VdRMWWy6Yt9xBOxY44jfucZa8jfyJUXp5/BWeTjQyKXVLs0bpx6k0X253tJ2/W/BSeuoJqea4WN316kcyRpL2AASNznsWb/ABYFXPkAnhg5iKSSaVkbfydUE9bunGQAO/jsoXMkhLiXvw4EFvW7GD4d84+CwHOBJD3jfI6XYLdsYB8vRVOLo86MKzFdm6l247GqNDjW69y4H0mNTS1WjtMtgqYn9NfL1FsgPTmM7nHqvM/Rx6Ngn1PdNe3L2cbbdH9SoPaDBMkgzI4Z/Zb7vr1Z27Ksr3OeAHuJAOcZyM/PKw3IaAMfa6yOwLvF2PPssx0eUNPeHGzb67fXsY/DtU+UmWX+kc10LnrC16Ko5RJTWpn1ypLX5BneCGDY7dLerzz1eGFWlrnNLSDktcDknc/5yseJJJJIGXHcuwABk+Pj96Kfp+HDDx40x/b9zbVDy4KJ6DhZqus0Pr606qonOMlrnbLKM5MsZOHsPiQWntnwC2BcWrTY+K3BCutUVXTuZdaMT0UhcCY5QOthHkQdvTJWt058Dg/DKyCR0hhc0M+xh27B6eRUHU9HWZbC6Muma+hrux1ZJS35LF/Ryn6hxivkNa6KF8dsdHK1zukB7ZOl2M4zuCPxVn+JXD7htr+uparVtDS3CajjMcDzVujLGk5I91w8VrVBcDkOIcdi4HBI8M4wsiSQf97J/bP+KjZ2hTyMn8RG3pfHZf3NduK7J9fVszYRR8C+BNtqBW/m5anex97+E1hljHqWvcR9658RuOPC7hvp4QUdzoayWnjEdNbbU5rwAAcNyzLWDbHn22WvTrkyCZJDg5H6R2x+9cOkbuw3rJ+1jv8AHxP3rR/tqVkk8i5zXseVhtv45bnpuLGt7xr/AF7WamvOGz1Lh7KEZLaeJp9yNvoB/f5r1HK9xduPCfV0lQYJq+zV4DLhSM3eMfZlZ4dQyc+Y8lGXn6nJ+KEfDODjIBx966CeDRPG/DzXw7bEp1pw6fQ2NUWpuDPGTTrKeorrHe4HdqWsc1s0TjscMfh7T4Zbt6roUnLhwTttW64fmpGGgdRZUVsz4B456Hv6QtegJBBDnAgAA9Rz953+XZczJIW9LpHkfzj/AJ+9c7/tq6v4ab2o+3JE/ByXyyNhnEfjVwt4Y2AUNLXUNXUU8eKSzWh0b5DgbDpacMaPEn8eyonxY1pdeIOuq3VN2c321U4iKNmTHBGM9DGk4yADucAFecGfP9/7s4/BCcnJ79snckev+zA9FaaZotOE3Zv1Tfqb6ceNXK7slPld4y1/CjU0rJYJK6xXItFbSNPvscBgSx52BA2we4wO+6uVQaw4P8XtMfU6i42O8Uk2C6irixsjHeXQ/BDh6LXEe3x8CMj7kGA/rGQ7GOoH3vv7rVqGg05dvnQfRP3R4txYzfUuGbDKflw4MQXNt1i0uQ9uHNH1+cxDBByG9fT4BZ5odc6QoOC2pLXNqK2CrrLbNTQU7aprpHSFpAb0gk+K16e1m6g4Ty5Axl0jiT+K45JeHk+8DkOwCQcjzz6/eoVfhu12xnde5dL3W/8A9NccOTe8pAbNAyDjxByPLv8AJEHbcDq8SBjO3+9F1aJ/oEREAREQBERAEREAREQBERAEREAREQBERAEREAREQBERAEREAREQBERAEREAREQBERAEREAREQBERAEREAREQBERAEREAREQBERAEREAREQBERAEREAREQBERAEREAREQBERAEREAREQBERAEREAREQBERAEREAREQBERAEREAREQBERAEREAREQBERAEREAREQBERAEREAREQBERAEREAREQBERAEREAREQBERAEREAREQBERAEREAREQBERAEREAREQBERAEREAREQBERAEREAREQBERAEREAREQBERAEREAREQBERAEREAREQBERAEREAREQBERAEREAREQBERAEREAREQBERAEREAREQBERAEREAREQBERAEREAREQBERAEREAREQBERAEREAREQBERAEREAREQBERAEREAREQBERAEREAREQBERAEREAREQBERAEREAREQBERAEREAREQBERAf/2Q==;" vertex="1" parent="1">
          <mxGeometry x="1150" y="110" width="90" height="90" as="geometry" />
        </mxCell>
        <mxCell id="72216ZQHOvZ9OeDvA5Sk-31" style="edgeStyle=orthogonalEdgeStyle;rounded=0;orthogonalLoop=1;jettySize=auto;html=1;entryX=0;entryY=0.5;entryDx=0;entryDy=0;entryPerimeter=0;" edge="1" parent="1" target="72216ZQHOvZ9OeDvA5Sk-25">
          <mxGeometry relative="1" as="geometry">
            <mxPoint x="870" y="540" as="sourcePoint" />
            <Array as="points">
              <mxPoint x="1010" y="540" />
              <mxPoint x="1010" y="559" />
            </Array>
          </mxGeometry>
        </mxCell>
        <mxCell id="72216ZQHOvZ9OeDvA5Sk-32" style="edgeStyle=orthogonalEdgeStyle;rounded=0;orthogonalLoop=1;jettySize=auto;html=1;entryX=0;entryY=0.5;entryDx=0;entryDy=0;entryPerimeter=0;" edge="1" parent="1" target="72216ZQHOvZ9OeDvA5Sk-24">
          <mxGeometry relative="1" as="geometry">
            <mxPoint x="870" y="540" as="sourcePoint" />
            <Array as="points">
              <mxPoint x="1010" y="540" />
              <mxPoint x="1010" y="450" />
              <mxPoint x="1040" y="450" />
            </Array>
          </mxGeometry>
        </mxCell>
        <mxCell id="72216ZQHOvZ9OeDvA5Sk-34" style="edgeStyle=orthogonalEdgeStyle;rounded=0;orthogonalLoop=1;jettySize=auto;html=1;exitX=1;exitY=0.25;exitDx=0;exitDy=0;exitPerimeter=0;entryX=0;entryY=0.5;entryDx=0;entryDy=0;" edge="1" parent="1" source="72216ZQHOvZ9OeDvA5Sk-21" target="72216ZQHOvZ9OeDvA5Sk-29">
          <mxGeometry relative="1" as="geometry">
            <Array as="points">
              <mxPoint x="1010" y="225" />
              <mxPoint x="1010" y="155" />
            </Array>
          </mxGeometry>
        </mxCell>
        <mxCell id="72216ZQHOvZ9OeDvA5Sk-35" style="edgeStyle=orthogonalEdgeStyle;rounded=0;orthogonalLoop=1;jettySize=auto;html=1;entryX=0;entryY=0.75;entryDx=0;entryDy=0;" edge="1" parent="1" target="72216ZQHOvZ9OeDvA5Sk-29">
          <mxGeometry relative="1" as="geometry">
            <mxPoint x="870" y="540" as="sourcePoint" />
            <Array as="points">
              <mxPoint x="884" y="540" />
              <mxPoint x="1010" y="540" />
              <mxPoint x="1010" y="178" />
            </Array>
          </mxGeometry>
        </mxCell>
        <mxCell id="72216ZQHOvZ9OeDvA5Sk-36" style="edgeStyle=orthogonalEdgeStyle;rounded=0;orthogonalLoop=1;jettySize=auto;html=1;entryX=-0.02;entryY=0.429;entryDx=0;entryDy=0;entryPerimeter=0;" edge="1" parent="1" target="72216ZQHOvZ9OeDvA5Sk-30">
          <mxGeometry relative="1" as="geometry">
            <mxPoint x="870" y="540" as="sourcePoint" />
            <Array as="points">
              <mxPoint x="1010" y="540" />
              <mxPoint x="1010" y="348" />
            </Array>
          </mxGeometry>
        </mxCell>
        <mxCell id="72216ZQHOvZ9OeDvA5Sk-37" style="edgeStyle=orthogonalEdgeStyle;rounded=0;orthogonalLoop=1;jettySize=auto;html=1;entryX=0;entryY=0.5;entryDx=0;entryDy=0;entryPerimeter=0;" edge="1" parent="1" source="72216ZQHOvZ9OeDvA5Sk-18" target="72216ZQHOvZ9OeDvA5Sk-21">
          <mxGeometry relative="1" as="geometry" />
        </mxCell>
        <mxCell id="72216ZQHOvZ9OeDvA5Sk-38" style="edgeStyle=orthogonalEdgeStyle;rounded=0;orthogonalLoop=1;jettySize=auto;html=1;entryX=1;entryY=0.25;entryDx=0;entryDy=0;entryPerimeter=0;exitX=1;exitY=0.75;exitDx=0;exitDy=0;exitPerimeter=0;" edge="1" parent="1" source="72216ZQHOvZ9OeDvA5Sk-21" target="72216ZQHOvZ9OeDvA5Sk-23">
          <mxGeometry relative="1" as="geometry" />
        </mxCell>
        <mxCell id="72216ZQHOvZ9OeDvA5Sk-45" value="CloudWatch" style="outlineConnect=0;dashed=0;verticalLabelPosition=bottom;verticalAlign=top;align=center;html=1;shape=mxgraph.aws3.cloudwatch;fillColor=#759C3E;gradientColor=none;" vertex="1" parent="1">
          <mxGeometry x="1040" y="637" width="82.5" height="93" as="geometry" />
        </mxCell>
        <mxCell id="72216ZQHOvZ9OeDvA5Sk-47" style="edgeStyle=orthogonalEdgeStyle;rounded=0;orthogonalLoop=1;jettySize=auto;html=1;entryX=0;entryY=0.79;entryDx=0;entryDy=0;entryPerimeter=0;fillColor=#e1d5e7;strokeColor=#9673a6;" edge="1" parent="1" source="72216ZQHOvZ9OeDvA5Sk-46" target="72216ZQHOvZ9OeDvA5Sk-42">
          <mxGeometry relative="1" as="geometry">
            <mxPoint x="1010" y="280" as="targetPoint" />
            <Array as="points">
              <mxPoint x="970" y="627" />
              <mxPoint x="970" y="274" />
            </Array>
          </mxGeometry>
        </mxCell>
        <mxCell id="72216ZQHOvZ9OeDvA5Sk-48" style="edgeStyle=orthogonalEdgeStyle;rounded=0;orthogonalLoop=1;jettySize=auto;html=1;entryX=0.1;entryY=0.5;entryDx=0;entryDy=0;entryPerimeter=0;fillColor=#e1d5e7;strokeColor=#9673a6;" edge="1" parent="1" source="72216ZQHOvZ9OeDvA5Sk-46" target="72216ZQHOvZ9OeDvA5Sk-45">
          <mxGeometry relative="1" as="geometry">
            <Array as="points">
              <mxPoint x="970" y="627" />
              <mxPoint x="970" y="697" />
            </Array>
          </mxGeometry>
        </mxCell>
        <mxCell id="72216ZQHOvZ9OeDvA5Sk-49" style="edgeStyle=orthogonalEdgeStyle;rounded=0;orthogonalLoop=1;jettySize=auto;html=1;entryX=0.1;entryY=0.5;entryDx=0;entryDy=0;entryPerimeter=0;" edge="1" parent="1" source="72216ZQHOvZ9OeDvA5Sk-23" target="72216ZQHOvZ9OeDvA5Sk-45">
          <mxGeometry relative="1" as="geometry">
            <Array as="points">
              <mxPoint x="970" y="540" />
              <mxPoint x="970" y="697" />
            </Array>
          </mxGeometry>
        </mxCell>
        <mxCell id="72216ZQHOvZ9OeDvA5Sk-50" style="edgeStyle=orthogonalEdgeStyle;rounded=0;orthogonalLoop=1;jettySize=auto;html=1;exitX=0;exitY=0.75;exitDx=0;exitDy=0;exitPerimeter=0;entryX=0;entryY=0.5;entryDx=0;entryDy=0;entryPerimeter=0;" edge="1" parent="1" source="72216ZQHOvZ9OeDvA5Sk-21" target="72216ZQHOvZ9OeDvA5Sk-46">
          <mxGeometry relative="1" as="geometry" />
        </mxCell>
        <mxCell id="72216ZQHOvZ9OeDvA5Sk-53" style="edgeStyle=orthogonalEdgeStyle;rounded=0;orthogonalLoop=1;jettySize=auto;html=1;entryX=0.1;entryY=0.5;entryDx=0;entryDy=0;entryPerimeter=0;" edge="1" parent="1" source="72216ZQHOvZ9OeDvA5Sk-21" target="72216ZQHOvZ9OeDvA5Sk-45">
          <mxGeometry relative="1" as="geometry">
            <Array as="points">
              <mxPoint x="970" y="243" />
              <mxPoint x="970" y="697" />
            </Array>
          </mxGeometry>
        </mxCell>
      </root>
    </mxGraphModel>
  </diagram>
</mxfile>
